<svg width="373" height="341" viewBox="0 0 373 341" fill="none" xmlns="http://www.w3.org/2000/svg">
  <mask id="mask0_128_2" style="mask-type:alpha" maskUnits="userSpaceOnUse" x="0" y="0" width="375" height="341">
    <rect width="375" height="341" transform="matrix(1 0 0 -1 0 341)" fill="#D9D9D9"/>
  </mask>
  <g mask="url(#mask0_128_2)">
    <path opacity="0.1" d="M503 101C503 -9.45694 413.457 -99 303 -99C192.543 -99 103 -9.45694 103 101C103 211.457 192.543 301 303 301C413.457 301 503 211.457 503 101Z" fill="url(#paint0_linear_128_2)">
      <animateTransform attributeName="transform" type="translate" values="0,0; 0,-10; 0,0" dur="6s" repeatCount="indefinite"/>
    </path>
    <path opacity="0.1" d="M236 -14C236 -69.2285 191.228 -114 136 -114C80.7715 -114 36 -69.2285 36 -14C36 41.2285 80.7715 86 136 86C191.228 86 236 41.2285 236 -14Z" fill="url(#paint1_linear_128_2)">
      <animateTransform attributeName="transform" type="translate" values="0,0; 0,10; 0,0" dur="5s" repeatCount="indefinite"/>
    </path>
  </g>
  <defs>
    <linearGradient id="paint0_linear_128_2" x1="303" y1="301" x2="303" y2="-99" gradientUnits="userSpaceOnUse">
      <stop offset="0.4" stop-color="#0ABAB5"/>
      <stop offset="1" stop-color="#4C53C6"/>
    </linearGradient>
    <linearGradient id="paint1_linear_128_2" x1="136" y1="86" x2="136" y2="-114" gradientUnits="userSpaceOnUse">
      <stop offset="0.4" stop-color="#0ABAB5"/>
      <stop offset="1" stop-color="#4C53C6"/>
    </linearGradient>
  </defs>
</svg>
