<svg width="103" height="77" viewBox="0 0 103 77" fill="none" xmlns="http://www.w3.org/2000/svg">
<path d="M10.2383 72H8.87033L4.75433 65.772V72H3.38633V63.648H4.75433L8.87033 69.864V63.648H10.2383V72ZM12.7308 64.512C12.4828 64.512 12.2748 64.428 12.1068 64.26C11.9388 64.092 11.8548 63.884 11.8548 63.636C11.8548 63.388 11.9388 63.18 12.1068 63.012C12.2748 62.844 12.4828 62.76 12.7308 62.76C12.9708 62.76 13.1748 62.844 13.3428 63.012C13.5108 63.18 13.5948 63.388 13.5948 63.636C13.5948 63.884 13.5108 64.092 13.3428 64.26C13.1748 64.428 12.9708 64.512 12.7308 64.512ZM13.4028 65.388V72H12.0348V65.388H13.4028ZM14.7428 68.688C14.7428 68.008 14.8788 67.412 15.1508 66.9C15.4308 66.38 15.8148 65.98 16.3028 65.7C16.7908 65.42 17.3508 65.28 17.9828 65.28C18.7828 65.28 19.4428 65.472 19.9628 65.856C20.4908 66.232 20.8468 66.772 21.0308 67.476H19.5548C19.4348 67.148 19.2428 66.892 18.9788 66.708C18.7148 66.524 18.3828 66.432 17.9828 66.432C17.4228 66.432 16.9748 66.632 16.6388 67.032C16.3108 67.424 16.1468 67.976 16.1468 68.688C16.1468 69.4 16.3108 69.956 16.6388 70.356C16.9748 70.756 17.4228 70.956 17.9828 70.956C18.7748 70.956 19.2988 70.608 19.5548 69.912H21.0308C20.8388 70.584 20.4788 71.12 19.9508 71.52C19.4228 71.912 18.7668 72.108 17.9828 72.108C17.3508 72.108 16.7908 71.968 16.3028 71.688C15.8148 71.4 15.4308 71 15.1508 70.488C14.8788 69.968 14.7428 69.368 14.7428 68.688ZM25.2621 72.108C24.6381 72.108 24.0741 71.968 23.5701 71.688C23.0661 71.4 22.6701 71 22.3821 70.488C22.0941 69.968 21.9501 69.368 21.9501 68.688C21.9501 68.016 22.0981 67.42 22.3941 66.9C22.6901 66.38 23.0941 65.98 23.6061 65.7C24.1181 65.42 24.6901 65.28 25.3221 65.28C25.9541 65.28 26.5261 65.42 27.0381 65.7C27.5501 65.98 27.9541 66.38 28.2501 66.9C28.5461 67.42 28.6941 68.016 28.6941 68.688C28.6941 69.36 28.5421 69.956 28.2381 70.476C27.9341 70.996 27.5181 71.4 26.9901 71.688C26.4701 71.968 25.8941 72.108 25.2621 72.108ZM25.2621 70.92C25.6141 70.92 25.9421 70.836 26.2461 70.668C26.5581 70.5 26.8101 70.248 27.0021 69.912C27.1941 69.576 27.2901 69.168 27.2901 68.688C27.2901 68.208 27.1981 67.804 27.0141 67.476C26.8301 67.14 26.5861 66.888 26.2821 66.72C25.9781 66.552 25.6501 66.468 25.2981 66.468C24.9461 66.468 24.6181 66.552 24.3141 66.72C24.0181 66.888 23.7821 67.14 23.6061 67.476C23.4301 67.804 23.3421 68.208 23.3421 68.688C23.3421 69.4 23.5221 69.952 23.8821 70.344C24.2501 70.728 24.7101 70.92 25.2621 70.92ZM31.4145 63.12V72H30.0465V63.12H31.4145ZM33.9065 64.512C33.6585 64.512 33.4505 64.428 33.2825 64.26C33.1145 64.092 33.0305 63.884 33.0305 63.636C33.0305 63.388 33.1145 63.18 33.2825 63.012C33.4505 62.844 33.6585 62.76 33.9065 62.76C34.1465 62.76 34.3505 62.844 34.5185 63.012C34.6865 63.18 34.7705 63.388 34.7705 63.636C34.7705 63.884 34.6865 64.092 34.5185 64.26C34.3505 64.428 34.1465 64.512 33.9065 64.512ZM34.5785 65.388V72H33.2105V65.388H34.5785ZM45.5278 66.06C45.3118 65.644 45.0118 65.332 44.6278 65.124C44.2438 64.908 43.7998 64.8 43.2958 64.8C42.7438 64.8 42.2518 64.924 41.8198 65.172C41.3878 65.42 41.0478 65.772 40.7998 66.228C40.5598 66.684 40.4398 67.212 40.4398 67.812C40.4398 68.412 40.5598 68.944 40.7998 69.408C41.0478 69.864 41.3878 70.216 41.8198 70.464C42.2518 70.712 42.7438 70.836 43.2958 70.836C44.0398 70.836 44.6438 70.628 45.1078 70.212C45.5718 69.796 45.8558 69.232 45.9598 68.52H42.8278V67.428H47.4238V68.496C47.3358 69.144 47.1038 69.74 46.7278 70.284C46.3598 70.828 45.8758 71.264 45.2758 71.592C44.6838 71.912 44.0238 72.072 43.2958 72.072C42.5118 72.072 41.7958 71.892 41.1478 71.532C40.4998 71.164 39.9838 70.656 39.5998 70.008C39.2238 69.36 39.0358 68.628 39.0358 67.812C39.0358 66.996 39.2238 66.264 39.5998 65.616C39.9838 64.968 40.4998 64.464 41.1478 64.104C41.8038 63.736 42.5198 63.552 43.2958 63.552C44.1838 63.552 44.9718 63.772 45.6598 64.212C46.3558 64.644 46.8598 65.26 47.1718 66.06H45.5278ZM56.2222 72L54.3022 68.664H53.2582V72H51.8902V63.66H54.7702C55.4102 63.66 55.9502 63.772 56.3902 63.996C56.8382 64.22 57.1702 64.52 57.3862 64.896C57.6102 65.272 57.7222 65.692 57.7222 66.156C57.7222 66.7 57.5622 67.196 57.2422 67.644C56.9302 68.084 56.4462 68.384 55.7902 68.544L57.8542 72H56.2222ZM53.2582 67.572H54.7702C55.2822 67.572 55.6662 67.444 55.9222 67.188C56.1862 66.932 56.3182 66.588 56.3182 66.156C56.3182 65.724 56.1902 65.388 55.9342 65.148C55.6782 64.9 55.2902 64.776 54.7702 64.776H53.2582V67.572ZM63.9575 70.896H66.7775V72H62.5895V63.66H63.9575V70.896ZM68.6175 64.512C68.3695 64.512 68.1615 64.428 67.9935 64.26C67.8255 64.092 67.7415 63.884 67.7415 63.636C67.7415 63.388 67.8255 63.18 67.9935 63.012C68.1615 62.844 68.3695 62.76 68.6175 62.76C68.8575 62.76 69.0615 62.844 69.2295 63.012C69.3975 63.18 69.4815 63.388 69.4815 63.636C69.4815 63.884 69.3975 64.092 69.2295 64.26C69.0615 64.428 68.8575 64.512 68.6175 64.512ZM69.2895 65.388V72H67.9215V65.388H69.2895ZM73.4855 72.108C72.9655 72.108 72.4975 72.016 72.0815 71.832C71.6735 71.64 71.3495 71.384 71.1095 71.064C70.8695 70.736 70.7415 70.372 70.7255 69.972H72.1415C72.1655 70.252 72.2975 70.488 72.5375 70.68C72.7855 70.864 73.0935 70.956 73.4615 70.956C73.8455 70.956 74.1415 70.884 74.3495 70.74C74.5655 70.588 74.6735 70.396 74.6735 70.164C74.6735 69.916 74.5535 69.732 74.3135 69.612C74.0815 69.492 73.7095 69.36 73.1975 69.216C72.7015 69.08 72.2975 68.948 71.9855 68.82C71.6735 68.692 71.4015 68.496 71.1695 68.232C70.9455 67.968 70.8335 67.62 70.8335 67.188C70.8335 66.836 70.9375 66.516 71.1455 66.228C71.3535 65.932 71.6495 65.7 72.0335 65.532C72.4255 65.364 72.8735 65.28 73.3775 65.28C74.1295 65.28 74.7335 65.472 75.1895 65.856C75.6535 66.232 75.9015 66.748 75.9335 67.404H74.5655C74.5415 67.108 74.4215 66.872 74.2055 66.696C73.9895 66.52 73.6975 66.432 73.3295 66.432C72.9695 66.432 72.6935 66.5 72.5015 66.636C72.3095 66.772 72.2135 66.952 72.2135 67.176C72.2135 67.352 72.2775 67.5 72.4055 67.62C72.5335 67.74 72.6895 67.836 72.8735 67.908C73.0575 67.972 73.3295 68.056 73.6895 68.16C74.1695 68.288 74.5615 68.42 74.8655 68.556C75.1775 68.684 75.4455 68.876 75.6695 69.132C75.8935 69.388 76.0095 69.728 76.0175 70.152C76.0175 70.528 75.9135 70.864 75.7055 71.16C75.4975 71.456 75.2015 71.688 74.8175 71.856C74.4415 72.024 73.9975 72.108 73.4855 72.108ZM78.8637 66.372C79.0957 66.052 79.4117 65.792 79.8117 65.592C80.2197 65.384 80.6717 65.28 81.1677 65.28C81.7517 65.28 82.2797 65.42 82.7517 65.7C83.2237 65.98 83.5957 66.38 83.8677 66.9C84.1397 67.412 84.2757 68 84.2757 68.664C84.2757 69.328 84.1397 69.924 83.8677 70.452C83.5957 70.972 83.2197 71.38 82.7397 71.676C82.2677 71.964 81.7437 72.108 81.1677 72.108C80.6557 72.108 80.1997 72.008 79.7997 71.808C79.4077 71.608 79.0957 71.352 78.8637 71.04V72H77.4957V63.12H78.8637V66.372ZM82.8837 68.664C82.8837 68.208 82.7877 67.816 82.5957 67.488C82.4117 67.152 82.1637 66.9 81.8517 66.732C81.5477 66.556 81.2197 66.468 80.8677 66.468C80.5237 66.468 80.1957 66.556 79.8837 66.732C79.5797 66.908 79.3317 67.164 79.1397 67.5C78.9557 67.836 78.8637 68.232 78.8637 68.688C78.8637 69.144 78.9557 69.544 79.1397 69.888C79.3317 70.224 79.5797 70.48 79.8837 70.656C80.1957 70.832 80.5237 70.92 80.8677 70.92C81.2197 70.92 81.5477 70.832 81.8517 70.656C82.1637 70.472 82.4117 70.208 82.5957 69.864C82.7877 69.52 82.8837 69.12 82.8837 68.664ZM88.4965 72.108C87.8725 72.108 87.3085 71.968 86.8045 71.688C86.3005 71.4 85.9045 71 85.6165 70.488C85.3285 69.968 85.1845 69.368 85.1845 68.688C85.1845 68.016 85.3325 67.42 85.6285 66.9C85.9245 66.38 86.3285 65.98 86.8405 65.7C87.3525 65.42 87.9245 65.28 88.5565 65.28C89.1885 65.28 89.7605 65.42 90.2725 65.7C90.7845 65.98 91.1885 66.38 91.4845 66.9C91.7805 67.42 91.9285 68.016 91.9285 68.688C91.9285 69.36 91.7765 69.956 91.4725 70.476C91.1685 70.996 90.7525 71.4 90.2245 71.688C89.7045 71.968 89.1285 72.108 88.4965 72.108ZM88.4965 70.92C88.8485 70.92 89.1765 70.836 89.4805 70.668C89.7925 70.5 90.0445 70.248 90.2365 69.912C90.4285 69.576 90.5245 69.168 90.5245 68.688C90.5245 68.208 90.4325 67.804 90.2485 67.476C90.0645 67.14 89.8205 66.888 89.5165 66.72C89.2125 66.552 88.8845 66.468 88.5325 66.468C88.1805 66.468 87.8525 66.552 87.5485 66.72C87.2525 66.888 87.0165 67.14 86.8405 67.476C86.6645 67.804 86.5765 68.208 86.5765 68.688C86.5765 69.4 86.7565 69.952 87.1165 70.344C87.4845 70.728 87.9445 70.92 88.4965 70.92ZM92.8249 68.664C92.8249 68 92.9609 67.412 93.2329 66.9C93.5129 66.388 93.8889 65.992 94.3609 65.712C94.8409 65.424 95.3689 65.28 95.9449 65.28C96.4649 65.28 96.9169 65.384 97.3009 65.592C97.6929 65.792 98.0049 66.044 98.2369 66.348V65.388H99.6169V72H98.2369V71.016C98.0049 71.328 97.6889 71.588 97.2889 71.796C96.8889 72.004 96.4329 72.108 95.9209 72.108C95.3529 72.108 94.8329 71.964 94.3609 71.676C93.8889 71.38 93.5129 70.972 93.2329 70.452C92.9609 69.924 92.8249 69.328 92.8249 68.664ZM98.2369 68.688C98.2369 68.232 98.1409 67.836 97.9489 67.5C97.7649 67.164 97.5209 66.908 97.2169 66.732C96.9129 66.556 96.5849 66.468 96.2329 66.468C95.8809 66.468 95.5529 66.556 95.2489 66.732C94.9449 66.9 94.6969 67.152 94.5049 67.488C94.3209 67.816 94.2289 68.208 94.2289 68.664C94.2289 69.12 94.3209 69.52 94.5049 69.864C94.6969 70.208 94.9449 70.472 95.2489 70.656C95.5609 70.832 95.8889 70.92 96.2329 70.92C96.5849 70.92 96.9129 70.832 97.2169 70.656C97.5209 70.48 97.7649 70.224 97.9489 69.888C98.1409 69.544 98.2369 69.144 98.2369 68.688Z" fill="#DFDFDF"/>
<mask id="mask0_85_30" style="mask-type:alpha" maskUnits="userSpaceOnUse" x="27" y="0" width="50" height="50">
<rect x="27" width="50" height="50" fill="#D9D9D9"/>
</mask>
<g mask="url(#mask0_85_30)">
<path d="M27 0.185185V10.5556H35.4112L68.5888 50H77V12.7778H68.5888V39.4444L35.4112 0L27 0.185185Z" fill="#F7F7F7"/>
<path d="M68.5888 6.11111V0.185185H77V6.11111H68.5888Z" fill="#F7F7F7"/>
<path d="M27 0.185185V10.5556H35.4112L68.5888 50H77V12.7778H68.5888V39.4444L35.4112 0L27 0.185185Z" stroke="#F0F0F0" stroke-width="0.5"/>
<path d="M68.5888 6.11111V0.185185H77V6.11111H68.5888Z" stroke="#F0F0F0" stroke-width="0.5"/>
<path d="M36.343 18.5547H27.593V49.5547H36.343V18.5547Z" fill="#F7F7F7" stroke="#F0F0F0"/>
</g>
</svg>
